<svg xmlns="http://www.w3.org/2000/svg" viewBox="0 0 1200 630" role="img" aria-label="Social preview card">
  <defs>
    <linearGradient id="bg" x1="0%" x2="100%" y1="0%" y2="100%">
      <stop offset="0%" stop-color="#071219" />
      <stop offset="100%" stop-color="#04090d" />
    </linearGradient>
    <linearGradient id="route" x1="0%" x2="100%" y1="0%" y2="0%">
      <stop offset="0%" stop-color="#86bcae" />
      <stop offset="100%" stop-color="#d0b16d" />
    </linearGradient>
  </defs>
  <rect width="1200" height="630" fill="url(#bg)" />
  <g opacity="0.18" stroke="#86bcae" stroke-width="1">
    <path d="M0 126H1200" />
    <path d="M0 252H1200" />
    <path d="M0 378H1200" />
    <path d="M0 504H1200" />
    <path d="M200 0V630" />
    <path d="M400 0V630" />
    <path d="M600 0V630" />
    <path d="M800 0V630" />
    <path d="M1000 0V630" />
  </g>
  <g fill="none" stroke="url(#route)" stroke-linecap="round" stroke-width="4">
    <path d="M150 450C260 410 330 380 430 320S640 220 780 220s185 35 270 90" />
  </g>
  <g fill="#071219" stroke="#86bcae" stroke-width="3">
    <circle cx="150" cy="450" r="18" fill="#071219" />
    <circle cx="430" cy="320" r="18" fill="#071219" />
    <circle cx="780" cy="220" r="18" fill="#071219" />
    <circle cx="1050" cy="310" r="18" fill="#071219" />
  </g>
  <g fill="#eef4f2" font-family="Inter, Arial, sans-serif">
    <text x="100" y="138" font-size="28" font-weight="700" letter-spacing="6">CAMDEN LOWRANCE</text>
    <text x="100" y="245" font-size="74" font-weight="700">Geospatial Software Engineer</text>
    <text x="100" y="315" font-size="32" fill="#a2b0ac">
      Building location-based systems across farm data,
    </text>
    <text x="100" y="360" font-size="32" fill="#a2b0ac">
      geospatial processing, and applied data products.
    </text>
  </g>
  <g fill="#eef4f2" font-family="Inter, Arial, sans-serif">
    <text x="100" y="540" font-size="26" font-weight="700">&gt;500B rows</text>
    <text x="340" y="540" font-size="26" font-weight="700">&gt;1,500 PRs</text>
    <text x="560" y="540" font-size="26" font-weight="700">Python / GeoParquet / DuckDB / Kubernetes</text>
  </g>
</svg>
